# xmcd
#
# Track frame offsets: 
#        150
#        17937
#        38987
#        60081
#        79447
#        102781
#        116518
#        132840
#        148438
#        165404
#        187121
#        206851
#
# Disc length: 3022 seconds
#
# Revision: 0
# Processed by: cddbd v1.5.2PL0 Copyright (c) Steve Scherf et al.
# Submitted via: ExactAudioCopyFreeDBPlugin 1.0
#
DISCID=ac0bcc0c
DTITLE=Kiefer Sutherland - Reckless and Me - Bonus CD - Live In Berlin
DYEAR=2019
DGENRE=Country
TTITLE0=Can't Stay Away
TTITLE1=Something You Love
TTITLE2=Reckless and Me
TTITLE3=Faided Pair Of Blue Jeans
TTITLE4=Open Road
TTITLE5=Blame It On Your Heart
TTITLE6=Saskatchewan
TTITLE7=This Is How It's Done
TTITLE8=Honey Bee
TTITLE9=Down In A Hole
TTITLE10=Agave
TTITLE11=Rebel Wind
EXTD=
EXTT0=
EXTT1=
EXTT2=
EXTT3=
EXTT4=
EXTT5=
EXTT6=
EXTT7=
EXTT8=
EXTT9=
EXTT10=
EXTT11=
PLAYORDER=
